<svg xmlns="http://www.w3.org/2000/svg" version="1.1" xmlns:xlink="http://www.w3.org/1999/xlink" viewBox="0.0 0.0 384.0 384.0" fill="none" stroke="none" stroke-linecap="square" stroke-miterlimit="10" width="384" height="384"><metadata><rdf:RDF xmlns:rdf="http://www.w3.org/1999/02/22-rdf-syntax-ns#" xmlns:dc="http://purl.org/dc/elements/1.1/"><rdf:Description><dc:creator>RealFaviconGenerator</dc:creator><dc:source>https://realfavicongenerator.net</dc:source></rdf:Description></rdf:RDF></metadata><clipPath id="p.0"><path d="m0 0l384.0 0l0 384.0l-384.0 0l0 -384.0z" clip-rule="nonzero"></path></clipPath><g clip-path="url(#p.0)"><path fill="#000000" fill-opacity="0.0" d="m0 0l384.0 0l0 384.0l-384.0 0z" fill-rule="evenodd"></path><path fill="#fff9e7" d="m21.003225 26.341503l185.13387 -18.236221l25.385834 257.95276l-185.13387 18.236206z" fill-rule="evenodd"></path><path stroke="#6aa84f" stroke-width="16.0" stroke-linejoin="round" stroke-linecap="butt" d="m21.003225 26.341503l185.13387 -18.236221l25.385834 257.95276l-185.13387 18.236206z" fill-rule="evenodd"></path><path fill="#000000" fill-opacity="0.0" d="m180.38112 87.09443l190.14174 0l0 42.01574l-190.14174 0z" fill-rule="evenodd"></path><path fill="#fff9e7" d="m217.97429 39.54009l157.16536 99.52756l-138.67717 218.96065l-157.16534 -99.52756z" fill-rule="evenodd"></path><path stroke="#6aa84f" stroke-width="16.0" stroke-linejoin="round" stroke-linecap="butt" d="m217.97429 39.54009l157.16536 99.52756l-138.67717 218.96065l-157.16534 -99.52756z" fill-rule="evenodd"></path></g></svg>